<?xml  version="1.0" encoding="UTF-8"?>
<!DOCTYPE svg PUBLIC "-//W3C//DTD SVG 1.0//EN" "http://www.w3.org/TR/2001/REC-SVG-20010904/DTD/svg10.dtd" >
<svg xmlns="http://www.w3.org/2000/svg" >
<metadata>
<version>1.0</version>
<id><![CDATA[Helvetica W01 Italic]]></id>
<vendor>Monotype Imaging Inc.</vendor>
<credits>
<name>Fonts.com WebFonts</name>
<URL>http://webfonts.fonts.com</URL>
<role>Home of the Web fonts</role>
</credits>
<license>
<URL>http://webfonts.fonts.com/Legal</URL>
</license>
<copyright><![CDATA[Part of the digitally encoded machine readable outline data for producing the Typefaces provided is copyrighted © 2004 - 2009 Linotype GmbH, www.linotype.com. All rights reserved. This software is the property of Linotype GmbH, and may not be reproduced, used, displayed, modified, disclosed or transferred without the express written approval of Linotype GmbH.  Copyright (c) 1985, 1987, 1989, 1990 Adobe Systems Incorporated. All Rights Reserved. Helvetica is a trademark of Linotype Corp. registered in the U.S. Patent and Trademark Office and may be registered in certain other jurisdictions in the name of Linotype Corp. or its licensee Linotype GmbH. This typeface is original artwork of Linotype Design Studio. The design may be protected in certain jurisdictions.]]></copyright>
<trademark><![CDATA[Helvetica is a trademark of Linotype Corp. registered in the U.S. Patent and Trademark Office and may be registered in certain other jurisdictions in the name of Linotype Corp. or its licensee Linotype GmbH.]]></trademark>
<licensee>
<name></name>
</licensee>
</metadata>
<defs >
<font horiz-adv-x="541" id="e523fdb5-21af-407c-a6bf-0a5e86316650">
<font-face font-family="" panose-1="2 11 5 4 2 2 2 9 2 4" ascent="931" descent="-225" units-per-em="1000" alphabetic="0">
</font-face>
<missing-glyph horiz-adv-x="0" />

<glyph unicode="&#xA;" />
<glyph unicode="&#xD;" horiz-adv-x="0" />
<glyph unicode=" " horiz-adv-x="278" />
<glyph unicode="!" horiz-adv-x="278" d="M150 171L192 481L243 718H340L289 481L199 171H150ZM187 0H90L112 102H209L187 0Z"  />
<glyph unicode="&quot;" horiz-adv-x="355" d="M365 718H438L383 463H310L365 718ZM223 718H296L241 463H168L223 718Z"  />
<glyph unicode="#" horiz-adv-x="556" d="M314 415L264 273H389L438 415H314ZM359 0H293L367 210H242L168 0H102L176 210H73L95 273H198L247 415H144L167 478H270L343 688H410L337 478H461L534 688H601L528 478H631L608 415H505L455 273H558L536 210H433L359 0Z"  />
<glyph unicode="$" horiz-adv-x="556" d="M529 521Q530 541 529 559T517 593T488 620T436 638L385 399Q433 384 470 370T532 335T564 281T562 196Q548 132 517 91T446 25T367 -9T296 -19L276 -115H229L249 -19Q203 -16 165 -4T103 34T71 104T77 213H165Q159 173 160 146T172 100T206 71T264 54L321 319Q285 328 251 340T191 374T156 430T156 516Q165 556 188 592T244 654T318 695T404 711L418 775H465L451 711Q474 709 506 702T566 675T609 618T614 521H529ZM311 54Q344 54 371 64T418 92T452 133T470 180Q479 222 462 251T416 291L365 308L311 54ZM389 638Q360 638 336 629T293 603T262 566T245 522Q239 495 245 476T265 443T298 421T340 409L389 638Z"  />
<glyph unicode="%" horiz-adv-x="889" d="M269 -19H215L763 703H818L269 -19ZM614 164Q604 117 628 90T692 63Q714 63 734 71T770 93T798 125T815 164Q819 185 815 203T801 234T774 255T736 263Q715 263 695 255T658 234T630 202T614 164ZM544 164Q551 200 571 230T620 284T682 320T751 333Q786 333 814 320T860 284T885 230T885 164Q877 129 858 98T810 43T748 7T679 -7Q644 -7 616 6T569 42T543 97T544 164ZM221 526Q211 479 235 452T299 425Q321 425 341 433T377 455T405 487T422 526Q426 547 422 565T408 596T381 617T343 625Q322 625 302 617T265 596T237 564T221 526ZM151 526Q158 562 178 592T227 646T289 682T358 695Q393 695 421 682T467 646T492 592T492 526Q484 491 464 460T416 405T354 369T285 355Q250 355 222 368T175 404T150 459T151 526Z"  />
<glyph unicode="&amp;" horiz-adv-x="667" d="M645 0H531L481 82Q458 61 435 43T384 13T324 -7T252 -15Q207 -15 176 -5T125 21T95 58T80 100T77 140T81 173Q89 210 102 239T138 294T198 346T291 399Q276 423 266 442T251 479T245 516T249 558Q255 589 272 618T316 669T377 704T453 718Q495 718 522 705T565 671T584 624T582 570Q574 532 555 503T512 452T462 412T413 382L511 226Q520 242 527 254T539 279T550 304T564 338H647Q636 301 612 254T550 155L645 0ZM379 439Q395 449 414 461T449 488T478 521T496 563Q501 587 496 602T481 626T459 638T435 642Q407 642 389 633T359 612T343 587T335 564Q331 546 334 528T345 494T362 463T379 439ZM327 339Q294 321 268 305T223 270T190 231T170 180Q163 146 172 124T199 87T238 67T274 61Q372 61 447 141L327 339Z"  />
<glyph unicode="&apos;" horiz-adv-x="191" d="M212 718H285L230 463H157L212 718Z"  />
<glyph unicode="(" horiz-adv-x="333" d="M454 733Q409 673 373 622T308 515T255 393T212 237Q199 175 198 120T203 12T223 -94T255 -207H196Q169 -149 149 -95T119 15T108 131Q108 191 123 261Q137 327 161 387T219 505T296 619T393 733H454Z"  />
<glyph unicode=")" horiz-adv-x="333" d="M-9 -207Q36 -147 72 -96T137 10T189 132T232 289Q245 351 247 406T242 514T221 620T190 733H249Q276 674 296 620T326 511T337 395T321 265Q307 199 283 139T226 21T149 -93T52 -207H-9Z"  />
<glyph unicode="*" horiz-adv-x="389" d="M196 646L293 608L317 718H377L353 608L466 646L475 591L359 557L407 465L351 431L306 525L221 431L179 465L265 557L165 591L196 646Z"  />
<glyph unicode="+" horiz-adv-x="584" d="M363 505H436L390 289H606L591 216H375L329 0H256L302 216H85L100 289H317L363 505Z"  />
<glyph unicode="&#x2c;" horiz-adv-x="278" d="M110 106H214L192 8Q180 -45 161 -75T120 -121T81 -141T56 -147L66 -101Q82 -100 94 -91T116 -67T131 -35T140 0H87L110 106Z"  />
<glyph unicode="-" horiz-adv-x="333" d="M338 232H93L112 322H357L338 232Z"  />
<glyph unicode="." horiz-adv-x="278" d="M191 0H87L110 106H214L191 0Z"  />
<glyph unicode="/" horiz-adv-x="278" d="M46 -19H-21L386 737H452L46 -19Z"  />
<glyph unicode="0" horiz-adv-x="556" d="M592 342Q580 287 557 224T497 107T405 17T274 -19Q221 -19 186 -1T131 48T102 118T93 201Q93 237 97 273T110 342Q122 397 144 460T204 577T296 667T427 703Q480 703 515 685T570 635T599 565T608 482Q608 446 604 410T592 342ZM498 342Q515 422 515 479Q515 549 490 586T411 624Q335 624 284 550T204 342Q195 303 191 269T187 205Q187 136 212 98T291 60Q367 60 418 134T498 342Z"  />
<glyph unicode="1" horiz-adv-x="556" d="M359 0H265L371 499H207L222 569Q265 572 297 577T354 595T399 634T439 703H508L359 0Z"  />
<glyph unicode="2" horiz-adv-x="556" d="M140 451Q158 537 196 587T278 663T365 696T436 703Q476 703 509 692T567 661T604 610T617 542Q617 531 616 519T612 493Q602 446 580 411T527 349T457 301T374 258L292 218Q252 198 225 179T181 141T155 108T143 83H525L507 0H26Q39 55 61 97T112 173T176 232T250 279L355 333Q386 349 413 364T461 397T496 438T519 497Q523 518 521 540T507 581T470 612T407 624Q357 624 325 604T273 556T243 499T228 451H140Z"  />
<glyph unicode="3" horiz-adv-x="556" d="M309 400Q320 399 332 399T355 398Q380 398 405 403T452 422T490 458T513 513Q516 529 515 548T503 584T470 612T407 624Q360 624 330 608T281 567T253 517T238 473H152Q160 512 178 552T228 626T309 681T427 703Q515 703 562 663T610 559Q610 541 605 518Q598 485 584 460T553 416T518 388T484 373V371Q524 358 547 330T571 253Q571 242 570 231T566 207Q557 163 534 123T474 51T384 0T265 -19Q226 -19 196 -11T142 12Q104 34 89 71T74 151Q74 167 76 183T80 215H171Q169 203 168 191T167 166Q167 146 172 127T190 93T226 69T288 60Q322 60 352 70T406 98T446 141T470 196Q472 205 473 213T474 229Q474 262 460 281T424 309T378 322T333 325Q323 325 313 325T293 324L309 400Z"  />
<glyph unicode="4" horiz-adv-x="556" d="M159 247H385L452 566H450L159 247ZM456 171L420 0H332L368 171H61L80 257L496 703H569L473 247H576L559 171H456Z"  />
<glyph unicode="5" horiz-adv-x="556" d="M234 409Q260 426 295 439T379 453Q416 453 450 442T510 409T552 355T568 280Q568 255 562 228Q556 199 538 157T485 75T394 9T255 -19Q223 -19 190 -12T129 13T85 63T67 145Q67 152 67 159T69 175H160Q154 113 189 85T284 57Q318 57 348 70T402 104T442 155T466 218Q468 229 469 239T470 258Q470 315 435 344T343 374Q305 374 268 357T199 307L124 311L257 688H621L603 602H305L234 409Z"  />
<glyph unicode="6" horiz-adv-x="556" d="M187 216Q183 199 183 177Q183 154 189 133T210 96T247 70T302 60Q333 60 361 72T411 105T450 155T474 221Q476 229 477 238T478 257Q478 277 473 297T454 333T418 359T363 369Q327 369 298 357T246 324T209 275T187 216ZM527 516Q529 563 508 593T429 624Q377 624 338 594T272 522T228 436T206 364L208 362Q219 376 236 391T276 419T328 440T393 448Q421 448 453 440T511 412T554 360T572 281Q572 255 566 225Q555 171 531 130T461 49Q444 34 426 22T386 0T335 -14T269 -19Q249 -19 226 -14T182 3T141 34T110 83Q91 130 91 191Q91 223 95 257T108 327Q120 385 145 451T211 573T310 666T447 703Q475 703 504 696T559 670T600 623T616 551Q616 534 613 516H527Z"  />
<glyph unicode="7" horiz-adv-x="556" d="M183 688H669L653 611Q621 584 568 529T456 396T337 218T234 0H137Q161 72 205 153T306 314T425 469T552 602H165L183 688Z"  />
<glyph unicode="8" horiz-adv-x="556" d="M362 406Q420 406 460 438T511 519Q514 535 512 553T499 587T465 613T403 624Q368 624 343 613T301 586T275 550T262 514Q257 489 263 469T283 435T317 414T362 406ZM347 330Q309 330 280 319T229 290T194 248T175 200Q171 185 171 165Q171 146 176 128T196 94T235 70T295 60Q319 60 345 65T394 85T436 126T464 193Q467 211 467 227Q467 281 434 305T347 330ZM603 522Q595 484 580 459T547 416T512 390T481 374Q506 363 522 348T547 316T561 281T565 246Q565 225 560 203Q551 161 529 121T471 50T386 0T275 -19Q260 -19 241 -17T200 -9T157 7T117 35Q91 60 82 88T73 142Q73 160 76 175T81 202Q95 268 135 309T236 373Q202 387 184 412T166 474Q166 493 170 510Q176 537 193 571T240 634T315 683T424 703Q475 703 510 691T566 657T596 610T606 556Q606 538 603 522Z"  />
<glyph unicode="9" horiz-adv-x="556" d="M343 314Q360 314 384 319T433 342T479 390T512 474Q514 485 515 495T516 516Q516 562 490 593T402 624Q339 624 293 581T232 466Q226 436 226 414Q226 381 237 361T265 331T303 317T343 314ZM313 235Q229 235 182 279T134 403Q134 430 140 462Q150 510 174 553T233 630T315 683T417 703Q475 703 512 686T571 640T601 575T609 501Q609 467 604 435T594 377Q590 358 580 322T553 241T509 151T447 67T363 5T255 -19Q204 -19 171 -5T118 30T90 78T82 130Q82 153 86 169H174Q166 115 190 85T268 54Q340 54 394 116T493 317L492 319Q478 299 458 283T413 257T363 241T313 235Z"  />
<glyph unicode=":" horiz-adv-x="278" d="M278 410H174L197 516H301L278 410ZM191 0H87L110 106H214L191 0Z"  />
<glyph unicode=";" horiz-adv-x="278" d="M174 410L197 516H301L278 410H174ZM110 106H214L192 8Q180 -45 161 -75T120 -121T81 -141T56 -147L66 -101Q82 -100 94 -91T116 -67T131 -35T140 0H87L110 106Z"  />
<glyph unicode="&lt;" horiz-adv-x="584" d="M538 11L94 218L109 288L641 495L624 415L200 253L555 91L538 11Z"  />
<glyph unicode="=" horiz-adv-x="584" d="M569 115H63L79 188H585L569 115ZM612 317H106L122 390H628L612 317Z"  />
<glyph unicode="&gt;" horiz-adv-x="584" d="M153 495L597 288L582 218L50 11L67 91L492 253L136 415L153 495Z"  />
<glyph unicode="?" horiz-adv-x="556" d="M318 0H221L243 102H340L318 0ZM161 493Q167 518 174 543T195 591T228 637T280 681Q315 704 355 715T435 727Q477 727 512 715T572 677T605 616T605 531Q600 506 591 487T566 448T529 410T476 366Q448 344 428 327T394 292T369 250T352 193L350 183H262Q271 226 282 254T309 306T348 350T403 398Q433 423 452 440T483 471T501 501T512 537Q515 553 514 572T503 609T472 639T415 651Q367 651 337 633T288 589T261 536T249 493H161Z"  />
<glyph unicode="@" horiz-adv-x="1015" d="M780 556H848Q822 503 795 450T745 351T707 273T689 230Q686 216 689 209T704 201Q730 201 759 219T814 268T862 338T892 417Q895 432 897 446T899 475Q899 522 882 559T833 622T759 661T667 675Q600 675 539 650T429 582T344 480T295 355Q291 338 290 321T288 287Q288 234 306 189T357 112T436 61T540 43Q610 43 681 73T807 157H874Q841 116 801 84T715 28T621 -7T525 -19Q455 -19 398 3T301 65T238 159T215 279Q215 319 224 361Q235 413 259 461T316 551T392 627T481 686T578 723T681 737Q742 737 794 719T884 669T943 590T965 489Q965 474 964 458T958 425Q944 357 908 304T828 213T737 156T658 136Q632 136 617 151T607 199L605 198Q578 175 543 156T472 136Q417 136 386 171T355 259Q355 279 359 296Q370 347 397 396T462 485T548 548T649 572Q685 572 710 554T747 494L780 556ZM698 408Q702 426 699 443T687 472T665 492T635 500Q602 500 570 481T512 434T468 371T443 305Q434 262 451 235T506 208Q537 208 569 228T627 278T673 343T698 408Z"  />
<glyph unicode="A" horiz-adv-x="667" d="M505 295L466 611H464L282 295H505ZM233 209L114 0H14L437 718H547L654 0H548L521 209H233Z"  />
<glyph unicode="B" horiz-adv-x="667" d="M189 83H396Q472 83 517 118T575 214Q583 252 573 275T542 312T492 330T433 335H242L189 83ZM227 718H324H543Q593 718 628 704T683 664T709 607T707 537Q703 519 695 499T672 458T635 420T579 387Q595 380 615 369T651 339T674 289T672 212Q663 169 639 131T578 63T492 17T383 0H171H74L227 718ZM259 414H434Q504 414 549 439T609 530Q620 581 592 608T482 635H306L259 414Z"  />
<glyph unicode="C" horiz-adv-x="722" d="M687 502Q687 549 670 578T628 624T572 645T517 651Q468 651 422 633T336 580T267 491T222 366Q208 304 208 255Q208 213 218 179T250 119T309 81T396 67Q420 67 452 74T518 103T584 162T643 264H737Q713 196 680 149T609 71T534 21T463 -6T403 -17T363 -19Q311 -19 265 -5T183 41T128 123T107 243Q107 295 121 363Q139 445 176 514T268 632T390 709T536 737Q605 737 653 717T732 665T773 590T781 502H687Z"  />
<glyph unicode="D" horiz-adv-x="722" d="M196 83H384Q479 83 550 154T651 363Q680 499 637 567T494 635H313L196 83ZM234 718H331H525Q595 718 645 693T725 621T761 511T752 369Q739 309 711 244T636 124T523 35T368 0H178H81L234 718Z"  />
<glyph unicode="E" horiz-adv-x="667" d="M616 0H183H86L239 718H336H762L743 632H317L271 412H664L645 326H252L201 86H634L616 0Z"  />
<glyph unicode="F" horiz-adv-x="611" d="M183 0H86L239 718H336H736L717 632H317L271 412H623L604 326H252L183 0Z"  />
<glyph unicode="G" horiz-adv-x="778" d="M471 384H689H786L704 0H641L638 93Q590 42 521 12T377 -19Q331 -19 298 -12T241 7T201 33T174 62Q136 107 123 153T110 243Q110 278 115 308T126 365Q140 431 174 497T261 616T386 703T545 737Q595 737 643 723T727 679T783 605T798 500H704Q702 547 685 576T641 622T583 645T521 651Q472 651 426 632T340 576T270 485T225 360Q219 332 216 305T212 252Q212 213 221 179T252 119T310 79T401 64Q414 64 431 65T469 71T511 85T557 110Q613 148 639 195T677 301H453L471 384Z"  />
<glyph unicode="H" horiz-adv-x="722" d="M702 718H799L646 0H549L620 335H245L174 0H77L230 718H327L263 421H638L702 718Z"  />
<glyph unicode="I" horiz-adv-x="278" d="M188 0H91L244 718H341L188 0Z"  />
<glyph unicode="J" horiz-adv-x="500" d="M157 231L146 181Q139 149 142 127T156 90T186 70T230 64Q264 64 288 73T328 99T355 139T371 188L484 718H581L469 194Q456 131 429 90T366 25T292 -9T217 -19Q154 -19 119 -1T66 45T48 104T51 160L66 231H157Z"  />
<glyph unicode="K" horiz-adv-x="667" d="M173 0H76L229 718H326L252 370L674 718H808L447 428L663 0H537L363 360L227 252L173 0Z"  />
<glyph unicode="L" horiz-adv-x="556" d="M191 86H555L537 0H173H76L229 718H326L191 86Z"  />
<glyph unicode="M" horiz-adv-x="833" d="M667 0L757 424Q759 432 763 451T773 496T785 550T797 603H795L465 0H369L295 602H293Q288 577 283 549T272 496T263 452T257 424L167 0H73L226 718H365L441 111H443L776 718H914L761 0H667Z"  />
<glyph unicode="N" horiz-adv-x="722" d="M705 718H799L646 0H537L295 580H293L170 0H76L229 718H344L579 138H581L705 718Z"  />
<glyph unicode="O" horiz-adv-x="778" d="M815 359Q807 320 791 277T749 192T688 112T608 45T508 -2T385 -19Q304 -19 250 5T164 70T119 160T105 262Q105 287 107 311T115 359Q123 398 139 441T181 526T242 606T322 673T423 720T546 737Q627 737 680 713T766 648T812 558T825 456Q825 430 823 406T815 359ZM715 359Q724 402 724 443Q724 489 712 527T674 593T613 636T527 651Q468 651 417 629T326 568T257 476T215 359Q205 316 205 275Q205 228 218 190T256 125T318 82T403 67Q461 67 512 89T603 150T672 242T715 359Z"  />
<glyph unicode="P" horiz-adv-x="667" d="M183 0H86L239 718H336H562Q612 718 648 703T706 660T734 596T732 516Q724 478 705 441T653 372T576 322T473 303H247L183 0ZM265 386H458Q491 386 519 392T569 414T607 454T631 515Q638 549 633 572T611 609T570 629T515 635H318L265 386Z"  />
<glyph unicode="Q" horiz-adv-x="778" d="M672 -56L580 29Q540 6 491 -6T385 -19Q304 -19 250 5T164 70T119 160T105 262Q105 287 107 311T115 359Q123 398 139 441T181 526T242 606T322 673T423 720T546 737Q627 737 680 713T766 648T812 558T825 456Q825 430 823 406T815 359Q808 324 795 287T761 213T713 142T652 78L733 2L672 -56ZM513 208L589 137Q637 175 669 232T715 359Q724 402 724 443Q724 489 712 527T674 593T613 636T527 651Q468 651 417 629T326 568T257 476T215 359Q205 316 205 275Q205 228 218 190T256 125T318 82T403 67Q462 67 514 90L451 148L513 208Z"  />
<glyph unicode="R" horiz-adv-x="722" d="M268 391H493Q520 391 547 395T597 413T639 451T665 515Q674 557 666 581T641 617T602 632T562 635H320L268 391ZM185 0H88L241 718H338H573Q617 718 657 709T726 679T767 620T768 525Q759 485 744 457T711 410T671 377T631 353Q645 347 658 339T680 317T692 279T688 218L667 88Q661 58 664 44T687 16L684 0H565Q563 16 565 42T572 96T580 146T586 180Q591 202 592 225T584 266T552 296T485 308H250L185 0Z"  />
<glyph unicode="S" horiz-adv-x="667" d="M617 508Q620 524 620 538Q620 571 607 593T573 628T524 648T470 654Q447 654 418 650T360 632T310 593T279 528Q274 505 278 490T292 464T316 447T345 437L540 390Q596 376 631 343T667 247Q667 236 666 224T662 198Q648 134 613 92T532 26T434 -9T335 -19Q285 -19 251 -13T194 4T156 27T133 50Q109 77 100 105T90 163Q90 194 98 232H189Q187 221 186 211T185 191Q185 155 199 131T237 91T291 70T352 64Q378 64 411 68T476 86T532 122T565 185Q569 201 569 218Q569 255 539 274T439 312L300 346Q285 349 264 357T224 379T192 417T178 476Q178 496 182 515Q191 557 213 597T273 668T361 718T477 737Q552 737 598 721T670 680T704 624T713 563Q713 548 712 534T708 508H617Z"  />
<glyph unicode="T" horiz-adv-x="611" d="M167 718H750L731 632H488L354 0H257L391 632H148L167 718Z"  />
<glyph unicode="U" horiz-adv-x="722" d="M797 718L698 252Q686 197 658 148T587 61T484 3T351 -19Q279 -19 231 2T157 60T125 142T130 239L232 718H329L233 266Q220 207 228 169T257 108T308 76T372 67Q405 67 441 76T508 107T565 167T603 264L700 718H797Z"  />
<glyph unicode="V" horiz-adv-x="667" d="M691 718H800L385 0H282L173 718H281L356 106H358L691 718Z"  />
<glyph unicode="W" horiz-adv-x="944" d="M169 718H274L283 134H285L528 631L571 718H677L713 134H715L974 718H1081L779 78L739 0H637L599 595H597L343 78L305 0H203L169 718Z"  />
<glyph unicode="X" horiz-adv-x="667" d="M648 0H528L398 295L136 0H19L354 368L188 718H310L433 443L674 718H790L474 368L648 0Z"  />
<glyph unicode="Y" horiz-adv-x="667" d="M382 0H285L346 289L167 718H280L412 373L692 718H806L443 289L382 0Z"  />
<glyph unicode="Z" horiz-adv-x="611" d="M588 0H23L40 81L597 632H190L209 718H741L723 634L164 86H606L588 0Z"  />
<glyph unicode="[" horiz-adv-x="278" d="M115 -125H223L208 -196H100H21L216 722H295H403L388 651H280L115 -125Z"  />
<glyph unicode="\" horiz-adv-x="278" d="M140 737H206L291 -19H224L140 737Z"  />
<glyph unicode="]" horiz-adv-x="278" d="M274 651H166L181 722H289H368L173 -196H94H-14L1 -125H109L274 651Z"  />
<glyph unicode="^" horiz-adv-x="469" d="M462 264L364 608L120 264H42L345 688H417L539 264H462Z"  />
<glyph unicode="_" horiz-adv-x="556" d="M540 -75L529 -125H-27L-16 -75H540Z"  />
<glyph unicode="`" horiz-adv-x="333" d="M170 734H278L337 593H270L170 734Z"  />
<glyph unicode="a" horiz-adv-x="556" d="M441 267Q435 263 426 259T401 252T358 244T289 234Q272 232 252 228T213 214T179 190T159 149Q150 106 167 82T234 58Q265 58 296 67T353 93T398 132T422 181L441 267ZM139 364Q151 411 173 444T228 498T302 528T392 538Q402 538 420 537T459 530T500 516T535 490T556 449T555 392L491 91Q485 60 514 60Q520 60 528 61T544 64L530 0Q518 -3 507 -6T480 -10Q451 -10 435 -3T411 15T403 40T404 70Q388 56 368 41T323 14T267 -7T197 -15Q161 -15 133 -4T88 27T64 74T65 136Q68 152 78 177T109 228T167 273T259 300L408 318Q416 319 424 321T441 330T456 348T467 380Q484 465 362 465Q324 465 300 455T259 430T235 397T220 364H139Z"  />
<glyph unicode="b" horiz-adv-x="556" d="M482 263Q486 280 489 301T492 345Q492 367 488 387T471 424T437 449T381 459Q333 459 300 437T246 380T212 308T192 237Q186 207 186 182Q186 147 196 124T223 86T260 67T298 61Q334 61 363 76T416 119T456 183T482 263ZM58 0L211 718H299L243 457H245Q283 499 325 518T413 538Q499 538 542 487T585 354Q585 317 576 277Q566 230 544 179T487 84T401 13T284 -15Q251 -15 229 -7T192 14T169 40T157 65H155L141 0H58Z"  />
<glyph unicode="c" horiz-adv-x="500" d="M466 347Q469 401 446 430T366 459Q325 459 294 442T239 396T202 332T180 262Q175 242 173 222T170 181Q170 157 175 135T192 97T226 71T280 61Q325 61 366 93T431 185H516Q506 154 487 119T436 54T362 5T261 -15Q169 -15 122 37T75 173Q75 190 77 208T83 247Q96 308 122 361T187 453T278 515T395 538Q440 538 470 525T519 490T545 440T553 381Q553 373 553 364T551 347H466Z"  />
<glyph unicode="d" horiz-adv-x="556" d="M182 263Q173 222 173 188Q173 131 198 96T280 61Q301 61 327 69T380 97T427 151T460 237Q465 259 469 284T473 335Q473 359 468 381T451 421T419 449T367 459Q316 459 283 438T229 387T198 322T182 263ZM499 0H416L431 72H429Q409 45 388 29T345 2T302 -11T262 -15Q212 -15 178 1T123 44T93 106T84 178Q84 233 94 277Q106 332 130 379T190 462T269 518T367 538Q402 538 426 529T465 505T490 476T504 449H506L564 718H652L499 0Z"  />
<glyph unicode="e" horiz-adv-x="556" d="M489 303Q491 314 492 325T493 347Q493 370 487 390T468 426T432 450T377 459Q347 459 318 446T264 412T223 362T198 303H489ZM544 164Q541 155 532 138T508 100T470 58T420 21Q400 9 367 -3T271 -15Q179 -15 132 37T85 173Q85 190 87 208T93 247Q106 308 132 361T197 453T288 515T405 538Q493 538 536 487T579 344Q579 291 566 233H184Q177 204 177 175Q177 120 207 91T299 61Q330 61 357 71T405 98T439 131T456 164H544Z"  />
<glyph unicode="f" horiz-adv-x="278" d="M270 450L174 0H86L182 450H110L125 523H197L216 613Q229 673 270 700T377 728Q387 728 396 728T416 726L400 647Q392 648 382 648T364 649Q335 649 321 635T299 588L285 523H373L358 450H270Z"  />
<glyph unicode="g" horiz-adv-x="556" d="M508 43Q504 24 497 -2T477 -58T443 -117T391 -168T314 -205T209 -220Q186 -220 156 -215T98 -194T54 -147T42 -64H130Q130 -95 142 -112T172 -136T206 -145T231 -147Q286 -147 320 -129T374 -83T403 -25T417 30L424 59Q398 27 360 6T267 -15Q217 -15 183 1T128 44T98 106T89 178Q89 233 99 277Q111 332 135 379T195 462T274 518T372 538Q408 538 432 528T471 504T496 474T511 446L527 523H610L508 43ZM187 263Q178 222 178 188Q178 131 203 96T285 61Q306 61 332 69T385 97T432 151T465 237Q470 259 474 284T478 335Q478 359 473 381T456 421T424 449T372 459Q321 459 288 438T234 387T203 322T187 263Z"  />
<glyph unicode="h" horiz-adv-x="556" d="M491 0H403L476 342Q482 369 482 390Q482 422 463 440T397 459Q370 459 342 451T289 422T244 368T214 285L153 0H65L218 718H306L249 453H251Q263 465 279 480T317 508T364 529T422 538Q448 538 475 533T523 513T559 474T573 410Q573 386 567 356L491 0Z"  />
<glyph unicode="i" horiz-adv-x="222" d="M198 618L220 718H308L286 618H198ZM155 0H67L178 523H266L155 0Z"  />
<glyph unicode="j" horiz-adv-x="222" d="M286 618H198L220 718H308L286 618ZM178 523H266L155 0L139 -77Q135 -94 128 -117T103 -160T55 -195T-24 -210Q-41 -210 -60 -207L-44 -131H-26Q-7 -131 6 -130T28 -122T42 -102T53 -67L67 0L178 523Z"  />
<glyph unicode="k" horiz-adv-x="500" d="M501 0H388L281 264L194 198L152 0H67L220 718H305L216 302L488 523H600L359 328L501 0Z"  />
<glyph unicode="l" horiz-adv-x="222" d="M155 0H67L220 718H308L155 0Z"  />
<glyph unicode="m" horiz-adv-x="833" d="M176 523H259L243 449H245Q254 459 270 474T308 504T358 528T422 538Q457 538 479 529T514 506T534 478T543 453Q564 471 583 487T622 514T666 531T721 538Q739 538 761 533T804 515T838 477T852 414Q852 390 846 362L769 0H681L753 338Q759 365 759 387Q759 420 742 439T682 459Q654 459 629 447T584 416T549 371T529 319L461 0H373L450 362Q453 378 453 395Q453 421 439 440T389 459Q370 459 345 452T294 426T247 372T214 285L153 0H65L176 523Z"  />
<glyph unicode="n" horiz-adv-x="556" d="M491 0H403L471 322Q479 357 479 381Q479 420 458 439T389 459Q370 459 345 452T294 426T247 372T214 285L153 0H65L176 523H259L243 449H245Q254 459 270 474T309 504T360 528T422 538Q448 538 475 533T523 513T559 474T573 410Q573 386 567 356L491 0Z"  />
<glyph unicode="o" horiz-adv-x="556" d="M182 262Q179 248 177 232T175 199Q175 175 180 151T198 107T234 75T291 62Q338 62 372 83T429 136T466 201T486 262Q489 276 491 292T493 326Q493 350 488 374T470 418T434 450T376 462Q329 462 295 441T238 388T202 323T182 262ZM91 262Q101 313 126 362T189 451T279 514T392 538Q444 538 480 522T540 477T573 412T584 334Q584 296 577 262Q566 211 541 162T478 73T389 10T275 -14Q224 -14 188 2T128 46T94 110T83 188Q83 222 91 262Z"  />
<glyph unicode="p" horiz-adv-x="556" d="M169 523H252L236 449H238Q248 460 263 475T300 505T349 528T413 538Q499 538 542 487T585 354Q585 317 576 277Q566 230 544 179T487 84T401 13T284 -15Q230 -15 201 6T160 55H158L102 -207H14L169 523ZM192 237Q186 207 186 182Q186 147 196 124T223 86T260 67T298 61Q334 61 363 76T416 119T456 183T482 263Q486 280 489 301T492 345Q492 367 488 387T471 424T437 449T381 459Q333 459 300 437T246 380T212 308T192 237Z"  />
<glyph unicode="q" horiz-adv-x="556" d="M460 237Q465 259 469 284T473 335Q473 359 468 381T451 421T419 449T367 459Q316 459 283 438T229 387T198 322T182 263Q173 222 173 188Q173 131 198 96T280 61Q301 61 327 69T380 97T427 151T460 237ZM450 -207H362L418 55H416Q393 27 355 6T262 -15Q212 -15 178 1T123 44T93 106T84 178Q84 233 94 277Q106 332 130 379T190 462T269 518T367 538Q402 538 426 529T465 505T490 476T504 449H506L522 523H605L450 -207Z"  />
<glyph unicode="r" horiz-adv-x="333" d="M165 0H77L188 523H271L253 436H255Q291 482 332 510T423 538Q431 538 436 538T446 535L426 444H393Q362 444 335 433T287 403T251 358T230 304L165 0Z"  />
<glyph unicode="s" horiz-adv-x="500" d="M441 374Q444 386 444 401T433 430T401 453T336 462Q326 462 308 460T271 450T237 427T216 388Q213 372 216 362T229 344T256 330T297 318L380 296Q446 279 474 254T502 190Q502 182 501 174T498 158Q489 117 467 85T412 31T339 -3T254 -15Q194 -15 157 -3T98 28T70 72T63 119Q63 133 64 145T68 168H153Q151 153 151 134T162 99T197 72T269 61Q293 61 315 66T356 81T388 106T407 144Q414 175 394 190T319 219L222 244Q170 258 144 287T128 371Q137 414 160 445T215 497T284 528T361 538Q416 538 449 524T500 490T523 447T529 405Q529 394 528 387T526 374H441Z"  />
<glyph unicode="t" horiz-adv-x="278" d="M269 450L196 110Q193 95 197 87T208 74T225 70T241 69H272L257 0Q232 -2 215 -4T190 -7Q157 -7 139 1T111 25T102 60Q102 81 107 105L181 450H110L125 523H196L227 669H315L284 523H368L353 450H269Z"  />
<glyph unicode="u" horiz-adv-x="556" d="M406 0L422 76L421 78Q383 32 341 9T235 -15Q210 -15 185 -9T140 10T107 46T94 103Q94 113 95 124T99 147L179 523H267L193 176Q188 151 188 137Q188 95 211 78T270 61Q312 61 343 77T396 119T431 175T451 235L512 523H600L489 0H406Z"  />
<glyph unicode="v" horiz-adv-x="500" d="M507 523H603L293 0H199L119 523H221L267 97H269L507 523Z"  />
<glyph unicode="w" horiz-adv-x="722" d="M125 523H221L234 112H236L398 467L424 523H522L537 112H539L732 523H820L592 69L557 0H466L446 405H444L288 69L256 0H165L125 523Z"  />
<glyph unicode="x" horiz-adv-x="500" d="M490 0H378L290 197L122 0H11L252 269L131 523H244L326 339L486 523H594L363 269L490 0Z"  />
<glyph unicode="y" horiz-adv-x="500" d="M503 523H600Q527 394 454 267T303 10Q296 -2 289 -14Q250 -77 223 -118T172 -181T120 -209T51 -214Q41 -214 33 -212T15 -206L32 -126Q40 -129 52 -132T83 -135Q100 -135 111 -132T135 -115T162 -79T202 -14L122 523H222L271 97H273L503 523Z"  />
<glyph unicode="z" horiz-adv-x="500" d="M164 73H485L469 0H31L46 69L442 450H151L166 523H571L556 451L164 73Z"  />
<glyph unicode="{" horiz-adv-x="334" d="M104 294Q121 294 138 303T169 330T195 370T212 421L249 593Q255 624 269 648T301 688T339 713T378 722H445L432 657H388Q362 657 347 633T324 575L288 405Q278 368 261 343T227 301T194 276T170 265V263Q177 261 189 253T212 229T228 186T228 120L192 -49Q184 -82 189 -106T220 -131H264L250 -196H183Q164 -196 148 -188T120 -163T106 -122T109 -67L145 104Q157 161 142 197T92 234L104 294Z"  />
<glyph unicode="|" horiz-adv-x="260" d="M332 775L119 -225H46L259 775H332Z"  />
<glyph unicode="}" horiz-adv-x="334" d="M342 234Q325 234 308 224T277 197T251 156T233 104L197 -67Q190 -98 176 -122T144 -162T106 -187T67 -196H0L14 -131H58Q84 -131 99 -107T122 -49L158 120Q168 159 185 185T219 228T252 253T276 263V265Q269 267 257 275T235 300T218 342T218 405L254 575Q262 609 257 633T226 657H182L195 722H262Q281 722 297 714T325 689T339 648T337 593L300 421Q289 366 304 330T354 294L342 234Z"  />
<glyph unicode="~" horiz-adv-x="584" d="M580 270Q550 234 514 209T437 184Q409 184 387 193T342 217Q321 231 296 241T235 252Q202 252 178 229T135 180L111 236Q123 252 137 267T169 295T208 314T254 322Q280 322 306 313T359 290Q393 273 416 264T453 254Q468 254 481 260T508 277T533 300T556 326L580 270Z"  />
<glyph unicode="&#xA0;" horiz-adv-x="278" />
<glyph unicode="&#xA1;" horiz-adv-x="333" d="M266 352L224 42L174 -195H77L127 42L217 352H266ZM229 523H326L304 421H207L229 523Z"  />
<glyph unicode="&#xA2;" horiz-adv-x="556" d="M500 345Q500 357 499 372T493 401T479 428T454 447L262 61Q269 59 275 58T296 57Q319 57 342 62T387 80T429 119T467 183H552Q543 156 523 121T470 55T391 3T283 -19Q271 -19 257 -17T224 -12L172 -115H131L189 -1Q137 27 110 87T103 245Q133 387 213 462T411 538Q439 538 453 532L498 623H537L491 523Q504 519 521 508T554 476T578 423T582 345H500ZM418 459Q412 461 406 461T389 462Q357 462 327 450T270 411T224 343T191 245Q180 191 190 145T229 78L418 459Z"  />
<glyph unicode="&#xA3;" horiz-adv-x="556" d="M183 380Q175 408 168 442T168 514Q175 545 194 581T248 647T335 698T459 718Q516 718 552 700T608 651T632 582T628 505L625 490H537L539 499Q553 562 524 602T432 642Q391 642 361 629T310 596T278 555T263 519Q257 490 263 458T285 380H452L438 317H300Q301 303 301 288T295 251Q286 208 247 158T137 66V65Q168 81 203 91T276 102Q299 102 321 97T363 85T402 73T436 67Q456 67 480 77T519 98L546 32Q509 8 477 -4T409 -16Q386 -16 363 -9T314 6T263 22T209 29Q180 29 148 18T84 -11L49 58Q94 84 123 111T172 164T199 211T211 245Q215 264 213 284T207 317H100L114 380H183Z"  />
<glyph unicode="&#xA4;" horiz-adv-x="556" d="M181 351Q173 315 179 283T204 226T250 187T315 172Q351 172 385 186T448 225T497 282T525 351Q532 386 526 418T501 474T454 513T390 528Q354 528 320 514T258 475T209 418T181 351ZM646 555L579 501Q599 472 602 433T598 351Q589 309 569 271T516 200L558 144L503 99L460 157Q425 129 383 116T300 102Q259 102 223 115T162 157L95 99L60 144L126 200Q106 232 103 270T108 351Q116 393 136 432T189 501L146 555L204 603L249 547Q283 572 324 585T405 598Q445 598 480 585T539 547L608 603L646 555Z"  />
<glyph unicode="&#xA5;" horiz-adv-x="556" d="M124 384H278L149 688H249L362 393L599 688H699L442 384H597L585 327H392L373 242H566L554 185H361L322 0H234L273 185H81L93 242H285L304 327H112L124 384Z"  />
<glyph unicode="&#xA6;" horiz-adv-x="260" d="M243 700H316L241 350H168L243 700ZM137 200H210L135 -150H62L137 200Z"  />
<glyph unicode="&#xA7;" horiz-adv-x="556" d="M284 428Q252 413 228 390T196 331Q192 311 194 297T201 272T212 255T223 246L386 124Q419 143 444 165T477 225Q484 258 471 281T435 321L284 428ZM493 554Q495 566 496 584T491 619T468 649T416 661Q401 661 384 657T352 643T324 618T307 580Q301 552 316 531T361 490L489 404Q509 390 525 375T552 341T566 299T564 244Q557 212 543 188T511 145T471 111T427 84Q445 59 454 34T455 -30Q447 -69 424 -99T371 -149T306 -180T239 -191Q197 -191 164 -181T108 -147T79 -89T82 -3H170Q167 -15 166 -34T171 -71T193 -102T244 -115Q258 -115 276 -112T313 -101T345 -76T366 -32Q371 -6 361 12T328 47L148 187Q130 200 121 217T109 250T105 282T109 309Q116 341 128 365T158 407T196 440T242 467Q222 495 216 516T217 567Q223 595 239 625T281 680T346 721T433 737Q463 737 494 729T547 701T580 645T578 554H493Z"  />
<glyph unicode="&#xA8;" horiz-adv-x="333" d="M421 604H330L352 706H443L421 604ZM259 604H168L190 706H281L259 604Z"  />
<glyph unicode="&#xA9;" horiz-adv-x="737" d="M630 289Q615 251 592 222T540 171T478 139T410 128Q367 128 334 141T277 177T242 232T230 303Q230 317 232 331T237 361Q247 411 271 453T330 526T410 574T505 592Q541 592 571 582T621 552T652 503T660 435H593Q593 477 567 501T492 526Q457 526 428 514T375 479T336 427T313 362Q308 337 308 318Q308 265 337 230T424 194Q472 194 509 220T562 289H630ZM139 360Q134 341 133 323T131 287Q131 233 149 189T199 112T277 62T379 44Q443 44 504 68T615 134T702 234T753 360Q757 378 758 395T760 430Q760 484 743 528T693 605T615 656T513 674Q448 674 387 650T276 584T189 485T139 360ZM366 -19Q298 -19 241 2T143 63T78 156T54 277Q54 316 63 360Q80 441 125 510T234 630T373 708T527 737Q594 737 651 715T750 654T814 561T838 440Q838 402 829 360Q811 278 766 209T657 89T519 10T366 -19Z"  />
<glyph unicode="&#xAA;" horiz-adv-x="370" d="M242 457Q262 457 281 462T317 477T345 500T360 528L369 570Q366 568 361 566T346 561T318 556T273 550Q262 549 250 547T226 540T206 527T195 507Q190 484 200 471T242 457ZM433 410Q425 408 418 407T400 405Q381 405 371 409T355 420T350 436T351 456Q331 439 299 422T217 405Q170 405 146 430T129 496Q132 507 138 523T159 554T199 581T263 598L353 608Q363 610 371 616T385 646Q389 662 374 673T318 685Q292 685 276 679T250 665T236 647T229 632H175Q189 689 232 713T339 737Q349 737 369 735T409 723T441 697T447 649L409 471Q405 452 423 452Q427 452 432 452T443 454L433 410Z"  />
<glyph unicode="&#xAB;" horiz-adv-x="556" d="M482 108L351 231L371 323L554 446L535 358L413 277L501 196L482 108ZM277 108L146 231L166 323L349 446L330 358L208 277L296 196L277 108Z"  />
<glyph unicode="&#xAC;" horiz-adv-x="584" d="M539 317H106L122 390H628L568 108H495L539 317Z"  />
<glyph unicode="&#xAD;" horiz-adv-x="333" d="M338 232H93L112 322H357L338 232Z"  />
<glyph unicode="&#xAE;" horiz-adv-x="737" d="M451 386Q472 386 491 387T527 396T555 417T572 457Q576 477 571 489T553 509T525 518T491 521H401L372 386H451ZM320 141H254L347 577H513Q579 577 611 557T644 490Q644 472 640 453Q634 424 621 403T590 367T549 344T502 333L585 141H511L436 330H360L320 141ZM139 360Q134 341 133 323T131 287Q131 233 149 189T199 112T277 62T379 44Q443 44 504 68T615 134T702 234T753 360Q757 378 758 395T760 430Q760 484 743 528T693 605T615 656T513 674Q448 674 387 650T276 584T189 485T139 360ZM366 -19Q298 -19 241 2T143 63T78 156T54 277Q54 316 63 360Q80 441 125 510T234 630T373 708T527 737Q594 737 651 715T750 654T814 561T838 440Q838 402 829 360Q811 278 766 209T657 89T519 10T366 -19Z"  />
<glyph unicode="&#xAF;" horiz-adv-x="333" d="M456 627H143L155 684H468L456 627Z"  />
<glyph unicode="&#xB0;" horiz-adv-x="400" d="M464 557Q458 525 441 499T400 453T347 422T287 411Q232 411 201 442T169 525Q169 540 172 557Q179 588 196 615T236 661T288 692T349 703Q403 703 435 672T468 591Q468 573 464 557ZM340 660Q320 660 301 652T265 629T236 596T220 557Q216 537 220 519T234 486T261 463T297 454Q317 454 336 462T372 485T400 518T416 557Q420 577 417 595T403 628T376 651T340 660Z"  />
<glyph unicode="&#xB1;" horiz-adv-x="584" d="M55 73H561L545 0H39L55 73ZM364 506H437L402 345H618L603 272H387L353 111H280L314 272H97L112 345H329L364 506Z"  />
<glyph unicode="&#xB2;" horiz-adv-x="333" d="M136 552Q147 603 171 633T223 678T280 698T326 703Q356 703 381 695T422 670T445 630T446 577Q440 548 426 527T392 490T348 460T296 435L247 412Q207 393 187 376T152 342H396L383 281H64Q81 347 117 385T203 448L270 481Q292 491 309 500T340 519T362 544T376 579L377 585Q379 595 377 606T367 625T345 639T306 645Q274 645 254 634T222 608T205 577T196 552H136Z"  />
<glyph unicode="&#xB3;" horiz-adv-x="333" d="M160 410Q158 397 158 382Q158 368 164 356T186 336T229 328Q273 328 302 345T340 399Q346 426 338 440T316 461T285 469T252 471H229L240 522H267Q283 522 299 525T327 535T349 556T363 589Q365 597 364 606T357 624T336 639T295 645Q270 645 253 638T225 618T207 592T197 565H136Q141 588 153 612T186 657T239 690T316 703Q382 703 413 672T434 592Q425 551 401 531T356 505V503Q388 494 404 471T411 406Q406 380 392 356T353 312T294 282T215 270Q189 270 170 275T135 289Q118 298 109 311T95 340T90 374Q90 392 92 410H160Z"  />
<glyph unicode="&#xB4;" horiz-adv-x="333" d="M315 593H248L367 734H475L315 593Z"  />
<glyph unicode="&#xB5;" horiz-adv-x="578" d="M558 -3Q558 -3 540 -5T501 -7Q455 -7 437 11T422 79Q398 40 361 13T263 -14Q223 -14 199 5T166 48L112 -207H24L179 523H267L195 182Q188 150 193 127T211 90T243 69T284 62Q355 62 395 108T452 234L513 523H601L520 141Q513 109 516 92T544 74Q555 74 565 75T575 77L558 -3H558Z"  />
<glyph unicode="&#xB6;" horiz-adv-x="537" d="M305 344Q257 344 221 358T161 397T130 455T130 528Q151 627 224 672T402 718H650L460 -173H387L564 658H445L268 -173H195L305 344Z"  />
<glyph unicode="&#xB7;" horiz-adv-x="278" d="M207 315Q230 315 245 297T256 252Q251 228 229 209T179 190Q153 190 140 208T131 252Q136 280 159 297T207 315Z"  />
<glyph unicode="&#xB8;" horiz-adv-x="333" d="M143 0H190L131 -62Q139 -60 146 -59T163 -58Q187 -58 202 -65T224 -83T232 -108T231 -133Q223 -172 186 -198T93 -225Q65 -225 43 -218T2 -203L27 -163Q44 -171 57 -174T89 -178Q96 -178 106 -177T125 -171T143 -158T154 -136Q157 -124 153 -117T142 -105T127 -99T114 -97Q107 -97 99 -98T74 -105L61 -86L143 0Z"  />
<glyph unicode="&#xB9;" horiz-adv-x="333" d="M166 577L175 623Q203 625 224 628T261 639T290 662T315 703H371L282 281H211L274 577H166Z"  />
<glyph unicode="&#xBA;" horiz-adv-x="365" d="M395 571Q397 580 398 590T399 612Q399 625 396 638T386 662T364 678T329 685Q299 685 279 673T245 644T224 606T213 571Q211 563 210 554T209 533Q209 519 212 506T223 481T244 464T280 457Q310 457 330 469T364 498T385 536T395 571ZM462 571Q452 522 431 490T383 439T327 413T269 405Q245 405 222 410T181 429T151 465T140 521Q140 542 146 571Q156 620 177 652T226 703T283 729T340 737Q364 737 387 732T428 713T457 678T468 622Q468 599 462 571Z"  />
<glyph unicode="&#xBB;" horiz-adv-x="556" d="M325 108L344 196L466 277L378 358L397 446L528 323L508 231L325 108ZM120 108L139 196L261 277L173 358L192 446L323 323L303 231L120 108Z"  />
<glyph unicode="&#xBC;" horiz-adv-x="834" d="M196 580L205 623Q233 625 254 628T291 639T320 662T345 703H398L309 281H241L304 580H196ZM207 -19H150L745 703H802L207 -19ZM697 339H695L513 152H657L697 339ZM452 154L715 422H779L721 152H788L776 94H709L689 0H625L645 94H439L452 154Z"  />
<glyph unicode="&#xBD;" horiz-adv-x="834" d="M527 271Q538 322 562 352T614 397T671 417T717 422Q779 422 813 389T836 296Q830 267 816 246T783 209T739 179T687 154L637 131Q598 112 577 95T542 61H786L773 0H454Q471 66 508 104T593 167L661 200Q682 210 699 219T730 238T753 263T766 298L768 304Q770 314 768 325T758 344T735 358T696 364Q664 364 645 353T613 327T596 296T587 271H527ZM166 577L175 623Q203 625 224 628T261 639T290 662T315 703H371L282 281H211L274 577H166ZM171 -19H114L709 703H766L171 -19Z"  />
<glyph unicode="&#xBE;" horiz-adv-x="834" d="M200 410Q198 397 198 382Q198 368 204 356T226 336T269 328Q313 328 342 345T380 399Q386 426 378 440T356 461T325 469T292 471H269L280 522H307Q323 522 339 525T367 535T389 556T403 589Q405 597 404 606T397 624T376 639T335 645Q310 645 293 638T265 618T247 592T237 565H176Q181 588 193 612T226 657T279 690T356 703Q422 703 453 672T474 592Q465 551 441 531T396 505V503Q428 494 444 471T451 406Q446 380 432 356T393 312T334 282T255 270Q229 270 210 275T175 289Q158 298 149 311T135 340T130 374Q130 392 132 410H200ZM266 -19H209L804 703H861L266 -19ZM567 152H711L751 339H749L567 152ZM506 154L769 422H833L775 152H842L830 94H763L743 0H679L699 94H493L506 154Z"  />
<glyph unicode="&#xBF;" horiz-adv-x="611" d="M377 525H474L452 423H355L377 525ZM534 33Q528 7 521 -17T500 -65T467 -111T415 -155Q380 -178 340 -189T260 -201Q218 -201 183 -189T123 -151T90 -90T90 -5Q95 20 104 39T129 78T166 116T219 160Q247 182 267 199T301 234T325 276T343 333L345 343H433Q424 300 413 272T386 220T347 176T292 128Q262 102 243 86T212 55T194 25T183 -11Q180 -27 180 -46T191 -83T222 -113T279 -125Q327 -125 358 -107T407 -63T434 -10T446 33H534Z"  />
<glyph unicode="&#xC0;" horiz-adv-x="667" d="M505 295L466 611H464L282 295H505ZM233 209L114 0H14L437 718H547L654 0H548L521 209H233ZM378 929H486L545 788H478L378 929Z"  />
<glyph unicode="&#xC1;" horiz-adv-x="667" d="M505 295L466 611H464L282 295H505ZM233 209L114 0H14L437 718H547L654 0H548L521 209H233ZM523 788H456L575 929H683L523 788Z"  />
<glyph unicode="&#xC2;" horiz-adv-x="667" d="M505 295L466 611H464L282 295H505ZM233 209L114 0H14L437 718H547L654 0H548L521 209H233ZM434 788H355L484 929H577L646 788H566L520 881L434 788Z"  />
<glyph unicode="&#xC3;" horiz-adv-x="667" d="M505 295L466 611H464L282 295H505ZM233 209L114 0H14L437 718H547L654 0H548L521 209H233ZM698 917Q691 894 679 875T651 840T616 817T575 808Q561 808 550 811T519 821L495 830Q471 839 459 842T437 845Q417 845 404 833T381 801H333Q348 845 379 876T460 908Q480 908 495 904T524 893L544 884Q558 878 570 875T589 871Q604 871 614 875T630 887T641 902T648 917H698Z"  />
<glyph unicode="&#xC4;" horiz-adv-x="667" d="M505 295L466 611H464L282 295H505ZM233 209L114 0H14L437 718H547L654 0H548L521 209H233ZM630 799H539L561 901H652L630 799ZM468 799H377L399 901H490L468 799Z"  />
<glyph unicode="&#xC5;" horiz-adv-x="667" d="M505 295L466 611H464L282 295H505ZM233 209L114 0H14L437 718H547L654 0H548L521 209H233ZM460 839Q455 817 467 802T501 787Q523 787 541 802T564 839Q569 861 557 876T523 891Q501 891 483 876T460 839ZM532 931Q572 931 592 905T604 839Q596 799 565 773T493 747Q453 747 433 773T420 839Q428 879 460 905T532 931Z"  />
<glyph unicode="&#xC6;" horiz-adv-x="1000" d="M591 632H494L290 295H520L591 632ZM113 0H8L453 718H609H706H1097L1078 632H688L642 412H998L979 326H623L572 86H969L951 0H554H457L501 209H236L113 0Z"  />
<glyph unicode="&#xC7;" horiz-adv-x="722" d="M247 -163Q264 -171 277 -174T309 -178Q316 -178 326 -177T345 -171T363 -158T374 -136Q377 -124 373 -117T362 -105T347 -99T334 -97Q327 -97 319 -98T294 -105L281 -86L346 -17Q298 -16 255 -1T178 46T126 126T107 243Q107 295 121 363Q139 445 176 514T268 632T390 709T536 737Q605 737 653 717T732 665T773 590T781 502H687Q687 549 670 578T628 624T572 645T517 651Q468 651 422 633T336 580T267 491T222 366Q208 304 208 255Q208 213 218 179T250 119T309 81T396 67Q420 67 452 74T518 103T584 162T643 264H737Q705 176 659 122T564 38T469 -4T393 -17L351 -62Q366 -58 383 -58Q407 -58 421 -65T443 -83T452 -108T451 -133Q443 -172 407 -198T313 -225Q285 -225 263 -218T222 -203L247 -163Z"  />
<glyph unicode="&#xC8;" horiz-adv-x="667" d="M616 0H183H86L239 718H336H762L743 632H317L271 412H664L645 326H252L201 86H634L616 0ZM378 929H486L545 788H478L378 929Z"  />
<glyph unicode="&#xC9;" horiz-adv-x="667" d="M616 0H183H86L239 718H336H762L743 632H317L271 412H664L645 326H252L201 86H634L616 0ZM523 788H456L575 929H683L523 788Z"  />
<glyph unicode="&#xCA;" horiz-adv-x="667" d="M616 0H183H86L239 718H336H762L743 632H317L271 412H664L645 326H252L201 86H634L616 0ZM434 788H355L484 929H577L646 788H566L520 881L434 788Z"  />
<glyph unicode="&#xCB;" horiz-adv-x="667" d="M616 0H183H86L239 718H336H762L743 632H317L271 412H664L645 326H252L201 86H634L616 0ZM630 799H539L561 901H652L630 799ZM468 799H377L399 901H490L468 799Z"  />
<glyph unicode="&#xCC;" horiz-adv-x="278" d="M188 0H91L244 718H341L188 0ZM184 929H292L351 788H284L184 929Z"  />
<glyph unicode="&#xCD;" horiz-adv-x="278" d="M188 0H91L244 718H341L188 0ZM329 788H262L381 929H489L329 788Z"  />
<glyph unicode="&#xCE;" horiz-adv-x="278" d="M188 0H91L244 718H341L188 0ZM240 788H161L290 929H383L452 788H372L326 881L240 788Z"  />
<glyph unicode="&#xCF;" horiz-adv-x="278" d="M188 0H91L244 718H341L188 0ZM436 799H345L367 901H458L436 799ZM274 799H183L205 901H296L274 799Z"  />
<glyph unicode="&#xD0;" horiz-adv-x="722" d="M87 412H168L233 718H524Q594 718 645 693T725 621T761 511T752 369Q749 354 740 321T712 246T664 162T594 82T497 23T368 0H81L157 356H77L87 412ZM446 356H254L195 83H383Q478 83 550 154T650 363Q680 499 637 567T494 635H313L265 412H457L446 356Z"  />
<glyph unicode="&#xD1;" horiz-adv-x="722" d="M705 718H799L646 0H537L295 580H293L170 0H76L229 718H344L579 138H581L705 718ZM736 917Q729 894 717 875T689 840T654 817T613 808Q599 808 588 811T557 821L533 830Q509 839 497 842T475 845Q455 845 442 833T419 801H371Q386 845 417 876T498 908Q518 908 533 904T562 893L582 884Q596 878 608 875T627 871Q642 871 652 875T668 887T679 902T686 917H736Z"  />
<glyph unicode="&#xD2;" horiz-adv-x="778" d="M815 359Q807 320 791 277T749 192T688 112T608 45T508 -2T385 -19Q304 -19 250 5T164 70T119 160T105 262Q105 287 107 311T115 359Q123 398 139 441T181 526T242 606T322 673T423 720T546 737Q627 737 680 713T766 648T812 558T825 456Q825 430 823 406T815 359ZM715 359Q724 402 724 443Q724 489 712 527T674 593T613 636T527 651Q468 651 417 629T326 568T257 476T215 359Q205 316 205 275Q205 228 218 190T256 125T318 82T403 67Q461 67 512 89T603 150T672 242T715 359ZM434 929H542L601 788H534L434 929Z"  />
<glyph unicode="&#xD3;" horiz-adv-x="778" d="M815 359Q807 320 791 277T749 192T688 112T608 45T508 -2T385 -19Q304 -19 250 5T164 70T119 160T105 262Q105 287 107 311T115 359Q123 398 139 441T181 526T242 606T322 673T423 720T546 737Q627 737 680 713T766 648T812 558T825 456Q825 430 823 406T815 359ZM715 359Q724 402 724 443Q724 489 712 527T674 593T613 636T527 651Q468 651 417 629T326 568T257 476T215 359Q205 316 205 275Q205 228 218 190T256 125T318 82T403 67Q461 67 512 89T603 150T672 242T715 359ZM579 788H512L631 929H739L579 788Z"  />
<glyph unicode="&#xD4;" horiz-adv-x="778" d="M815 359Q807 320 791 277T749 192T688 112T608 45T508 -2T385 -19Q304 -19 250 5T164 70T119 160T105 262Q105 287 107 311T115 359Q123 398 139 441T181 526T242 606T322 673T423 720T546 737Q627 737 680 713T766 648T812 558T825 456Q825 430 823 406T815 359ZM715 359Q724 402 724 443Q724 489 712 527T674 593T613 636T527 651Q468 651 417 629T326 568T257 476T215 359Q205 316 205 275Q205 228 218 190T256 125T318 82T403 67Q461 67 512 89T603 150T672 242T715 359ZM490 788H411L540 929H633L702 788H622L576 881L490 788Z"  />
<glyph unicode="&#xD5;" horiz-adv-x="778" d="M815 359Q807 320 791 277T749 192T688 112T608 45T508 -2T385 -19Q304 -19 250 5T164 70T119 160T105 262Q105 287 107 311T115 359Q123 398 139 441T181 526T242 606T322 673T423 720T546 737Q627 737 680 713T766 648T812 558T825 456Q825 430 823 406T815 359ZM715 359Q724 402 724 443Q724 489 712 527T674 593T613 636T527 651Q468 651 417 629T326 568T257 476T215 359Q205 316 205 275Q205 228 218 190T256 125T318 82T403 67Q461 67 512 89T603 150T672 242T715 359ZM754 917Q747 894 735 875T707 840T672 817T631 808Q617 808 606 811T575 821L551 830Q527 839 515 842T493 845Q473 845 460 833T437 801H389Q404 845 435 876T516 908Q536 908 551 904T580 893L600 884Q614 878 626 875T645 871Q660 871 670 875T686 887T697 902T704 917H754Z"  />
<glyph unicode="&#xD6;" horiz-adv-x="778" d="M815 359Q807 320 791 277T749 192T688 112T608 45T508 -2T385 -19Q304 -19 250 5T164 70T119 160T105 262Q105 287 107 311T115 359Q123 398 139 441T181 526T242 606T322 673T423 720T546 737Q627 737 680 713T766 648T812 558T825 456Q825 430 823 406T815 359ZM715 359Q724 402 724 443Q724 489 712 527T674 593T613 636T527 651Q468 651 417 629T326 568T257 476T215 359Q205 316 205 275Q205 228 218 190T256 125T318 82T403 67Q461 67 512 89T603 150T672 242T715 359ZM686 799H595L617 901H708L686 799ZM524 799H433L455 901H546L524 799Z"  />
<glyph unicode="&#xD7;" horiz-adv-x="584" d="M136 455L199 506L357 305L602 506L642 455L398 253L556 51L494 0L335 201L90 0L50 51L295 253L136 455Z"  />
<glyph unicode="&#xD8;" horiz-adv-x="778" d="M788 616Q808 580 817 539T826 455Q826 406 815 359Q807 320 791 277T749 192T688 112T608 45T508 -2T385 -19Q306 -19 253 5T167 68L69 -19L43 9L145 99Q123 137 114 178T105 262Q105 287 107 311T115 359Q123 398 139 441T181 526T242 606T322 673T423 720T546 737Q627 737 680 713T766 648L866 737L890 707L788 616ZM687 578Q663 613 623 632T527 651Q468 651 417 629T326 568T257 476T215 359Q206 314 206 275Q206 246 210 220T226 171L687 578ZM246 138Q271 104 310 86T403 67Q461 67 512 89T603 150T672 242T715 359Q725 402 725 444Q725 500 705 543L246 138Z"  />
<glyph unicode="&#xD9;" horiz-adv-x="722" d="M797 718L698 252Q686 197 658 148T587 61T484 3T351 -19Q279 -19 231 2T157 60T125 142T130 239L232 718H329L233 266Q220 207 228 169T257 108T308 76T372 67Q405 67 441 76T508 107T565 167T603 264L700 718H797ZM406 929H514L573 788H506L406 929Z"  />
<glyph unicode="&#xDA;" horiz-adv-x="722" d="M797 718L698 252Q686 197 658 148T587 61T484 3T351 -19Q279 -19 231 2T157 60T125 142T130 239L232 718H329L233 266Q220 207 228 169T257 108T308 76T372 67Q405 67 441 76T508 107T565 167T603 264L700 718H797ZM551 788H484L603 929H711L551 788Z"  />
<glyph unicode="&#xDB;" horiz-adv-x="722" d="M797 718L698 252Q686 197 658 148T587 61T484 3T351 -19Q279 -19 231 2T157 60T125 142T130 239L232 718H329L233 266Q220 207 228 169T257 108T308 76T372 67Q405 67 441 76T508 107T565 167T603 264L700 718H797ZM462 788H383L512 929H605L674 788H594L548 881L462 788Z"  />
<glyph unicode="&#xDC;" horiz-adv-x="722" d="M797 718L698 252Q686 197 658 148T587 61T484 3T351 -19Q279 -19 231 2T157 60T125 142T130 239L232 718H329L233 266Q220 207 228 169T257 108T308 76T372 67Q405 67 441 76T508 107T565 167T603 264L700 718H797ZM658 799H567L589 901H680L658 799ZM496 799H405L427 901H518L496 799Z"  />
<glyph unicode="&#xDD;" horiz-adv-x="667" d="M382 0H285L346 289L167 718H280L412 373L692 718H806L443 289L382 0ZM523 788H456L575 929H683L523 788Z"  />
<glyph unicode="&#xDE;" horiz-adv-x="667" d="M239 718H336L310 599H536Q586 599 622 584T680 541T708 477T706 397Q698 359 679 322T628 253T551 203T448 184H222L183 0H86L239 718ZM240 267H433Q466 267 494 273T544 295T582 335T606 396Q613 430 608 453T586 490T545 510T490 516H293L240 267Z"  />
<glyph unicode="&#xDF;" horiz-adv-x="611" d="M180 532Q189 575 212 611T269 673T350 713T453 728Q565 728 618 679T653 548Q645 512 631 486T599 443T566 416T540 400Q566 392 584 375T612 334T624 286T622 238Q608 172 579 124T509 45T419 0T316 -15Q294 -15 285 -13T264 -8L280 67Q302 64 324 64Q406 64 457 101T525 214Q534 253 528 280T502 323T453 347T385 354Q362 354 345 350L362 429Q369 428 374 428T385 427Q430 427 462 436T515 461T547 497T564 540Q574 588 543 620T436 652Q394 652 364 642T314 613T282 568T263 510L155 0H67L180 532Z"  />
<glyph unicode="&#xE0;" horiz-adv-x="556" d="M441 267Q435 263 426 259T401 252T358 244T289 234Q272 232 252 228T213 214T179 190T159 149Q150 106 167 82T234 58Q265 58 296 67T353 93T398 132T422 181L441 267ZM139 364Q151 411 173 444T228 498T302 528T392 538Q402 538 420 537T459 530T500 516T535 490T556 449T555 392L491 91Q485 60 514 60Q520 60 528 61T544 64L530 0Q518 -3 507 -6T480 -10Q451 -10 435 -3T411 15T403 40T404 70Q388 56 368 41T323 14T267 -7T197 -15Q161 -15 133 -4T88 27T64 74T65 136Q68 152 78 177T109 228T167 273T259 300L408 318Q416 319 424 321T441 330T456 348T467 380Q484 465 362 465Q324 465 300 455T259 430T235 397T220 364H139ZM282 734H390L449 593H382L282 734Z"  />
<glyph unicode="&#xE1;" horiz-adv-x="556" d="M441 267Q435 263 426 259T401 252T358 244T289 234Q272 232 252 228T213 214T179 190T159 149Q150 106 167 82T234 58Q265 58 296 67T353 93T398 132T422 181L441 267ZM139 364Q151 411 173 444T228 498T302 528T392 538Q402 538 420 537T459 530T500 516T535 490T556 449T555 392L491 91Q485 60 514 60Q520 60 528 61T544 64L530 0Q518 -3 507 -6T480 -10Q451 -10 435 -3T411 15T403 40T404 70Q388 56 368 41T323 14T267 -7T197 -15Q161 -15 133 -4T88 27T64 74T65 136Q68 152 78 177T109 228T167 273T259 300L408 318Q416 319 424 321T441 330T456 348T467 380Q484 465 362 465Q324 465 300 455T259 430T235 397T220 364H139ZM427 593H360L479 734H587L427 593Z"  />
<glyph unicode="&#xE2;" horiz-adv-x="556" d="M441 267Q435 263 426 259T401 252T358 244T289 234Q272 232 252 228T213 214T179 190T159 149Q150 106 167 82T234 58Q265 58 296 67T353 93T398 132T422 181L441 267ZM139 364Q151 411 173 444T228 498T302 528T392 538Q402 538 420 537T459 530T500 516T535 490T556 449T555 392L491 91Q485 60 514 60Q520 60 528 61T544 64L530 0Q518 -3 507 -6T480 -10Q451 -10 435 -3T411 15T403 40T404 70Q388 56 368 41T323 14T267 -7T197 -15Q161 -15 133 -4T88 27T64 74T65 136Q68 152 78 177T109 228T167 273T259 300L408 318Q416 319 424 321T441 330T456 348T467 380Q484 465 362 465Q324 465 300 455T259 430T235 397T220 364H139ZM338 593H259L388 734H481L550 593H470L424 686L338 593Z"  />
<glyph unicode="&#xE3;" horiz-adv-x="556" d="M441 267Q435 263 426 259T401 252T358 244T289 234Q272 232 252 228T213 214T179 190T159 149Q150 106 167 82T234 58Q265 58 296 67T353 93T398 132T422 181L441 267ZM139 364Q151 411 173 444T228 498T302 528T392 538Q402 538 420 537T459 530T500 516T535 490T556 449T555 392L491 91Q485 60 514 60Q520 60 528 61T544 64L530 0Q518 -3 507 -6T480 -10Q451 -10 435 -3T411 15T403 40T404 70Q388 56 368 41T323 14T267 -7T197 -15Q161 -15 133 -4T88 27T64 74T65 136Q68 152 78 177T109 228T167 273T259 300L408 318Q416 319 424 321T441 330T456 348T467 380Q484 465 362 465Q324 465 300 455T259 430T235 397T220 364H139ZM592 722Q585 699 573 680T545 645T510 622T469 613Q455 613 444 616T413 626L389 635Q365 644 353 647T331 650Q311 650 298 638T275 606H227Q242 650 273 681T354 713Q374 713 389 709T418 698L438 689Q452 683 464 680T483 676Q498 676 508 680T524 692T535 707T542 722H592Z"  />
<glyph unicode="&#xE4;" horiz-adv-x="556" d="M441 267Q435 263 426 259T401 252T358 244T289 234Q272 232 252 228T213 214T179 190T159 149Q150 106 167 82T234 58Q265 58 296 67T353 93T398 132T422 181L441 267ZM139 364Q151 411 173 444T228 498T302 528T392 538Q402 538 420 537T459 530T500 516T535 490T556 449T555 392L491 91Q485 60 514 60Q520 60 528 61T544 64L530 0Q518 -3 507 -6T480 -10Q451 -10 435 -3T411 15T403 40T404 70Q388 56 368 41T323 14T267 -7T197 -15Q161 -15 133 -4T88 27T64 74T65 136Q68 152 78 177T109 228T167 273T259 300L408 318Q416 319 424 321T441 330T456 348T467 380Q484 465 362 465Q324 465 300 455T259 430T235 397T220 364H139ZM533 604H442L464 706H555L533 604ZM371 604H280L302 706H393L371 604Z"  />
<glyph unicode="&#xE5;" horiz-adv-x="556" d="M441 267Q435 263 426 259T401 252T358 244T289 234Q272 232 252 228T213 214T179 190T159 149Q150 106 167 82T234 58Q265 58 296 67T353 93T398 132T422 181L441 267ZM139 364Q151 411 173 444T228 498T302 528T392 538Q402 538 420 537T459 530T500 516T535 490T556 449T555 392L491 91Q485 60 514 60Q520 60 528 61T544 64L530 0Q518 -3 507 -6T480 -10Q451 -10 435 -3T411 15T403 40T404 70Q388 56 368 41T323 14T267 -7T197 -15Q161 -15 133 -4T88 27T64 74T65 136Q68 152 78 177T109 228T167 273T259 300L408 318Q416 319 424 321T441 330T456 348T467 380Q484 465 362 465Q324 465 300 455T259 430T235 397T220 364H139ZM368 664Q363 642 375 627T409 612Q431 612 449 627T472 664Q477 686 465 701T431 716Q409 716 391 701T368 664ZM440 756Q480 756 500 730T512 664Q504 624 473 598T401 572Q361 572 341 598T328 664Q336 704 368 730T440 756Z"  />
<glyph unicode="&#xE6;" horiz-adv-x="889" d="M441 267Q435 263 426 259T401 251T358 243T289 234Q272 232 252 228T212 215T179 190T159 149Q150 106 166 82T234 58Q265 58 296 67T354 93T398 132T422 181L441 267ZM875 164Q872 155 863 138T839 100T801 58T751 21Q731 9 698 -3T602 -15Q555 -15 525 -3T475 26T447 61T433 94Q382 36 326 11T197 -15Q134 -15 98 16T62 102Q62 118 65 136Q68 153 77 178T109 227T167 272T259 300L408 318Q415 319 424 321T441 330T456 348T467 380Q483 465 362 465Q324 465 300 455T259 430T235 397T220 364H139Q163 458 228 498T392 538Q429 538 454 532T496 516T524 492T547 464Q560 474 576 487T615 511T667 530T736 538Q824 538 867 487T910 344Q910 291 897 233H515Q508 204 508 175Q508 120 538 91T630 61Q661 61 688 71T736 98T770 131T787 164H875ZM820 303Q822 314 823 325T824 347Q824 370 818 390T799 426T763 450T708 459Q678 459 649 446T595 412T554 362T529 303H820Z"  />
<glyph unicode="&#xE7;" horiz-adv-x="500" d="M137 -163Q154 -171 167 -174T199 -178Q206 -178 216 -177T235 -171T253 -158T264 -136Q267 -124 263 -117T252 -105T237 -99T224 -97Q217 -97 209 -98T184 -105L171 -86L240 -13Q158 -6 116 44T74 172Q74 208 83 247Q96 308 122 361T187 453T278 515T395 538Q440 538 470 525T519 490T545 440T553 381Q553 373 553 364T551 347H466Q469 401 446 430T366 459Q325 459 294 442T239 396T202 332T180 262Q175 242 173 222T170 181Q170 157 175 135T192 97T226 71T280 61Q325 61 366 93T431 185H516Q507 156 489 123T444 62T378 13T288 -12L241 -62Q256 -58 273 -58Q297 -58 311 -65T333 -83T342 -108T341 -133Q333 -172 297 -198T203 -225Q175 -225 153 -218T112 -203L137 -163Z"  />
<glyph unicode="&#xE8;" horiz-adv-x="556" d="M489 303Q491 314 492 325T493 347Q493 370 487 390T468 426T432 450T377 459Q347 459 318 446T264 412T223 362T198 303H489ZM544 164Q541 155 532 138T508 100T470 58T420 21Q400 9 367 -3T271 -15Q179 -15 132 37T85 173Q85 190 87 208T93 247Q106 308 132 361T197 453T288 515T405 538Q493 538 536 487T579 344Q579 291 566 233H184Q177 204 177 175Q177 120 207 91T299 61Q330 61 357 71T405 98T439 131T456 164H544ZM282 734H390L449 593H382L282 734Z"  />
<glyph unicode="&#xE9;" horiz-adv-x="556" d="M489 303Q491 314 492 325T493 347Q493 370 487 390T468 426T432 450T377 459Q347 459 318 446T264 412T223 362T198 303H489ZM544 164Q541 155 532 138T508 100T470 58T420 21Q400 9 367 -3T271 -15Q179 -15 132 37T85 173Q85 190 87 208T93 247Q106 308 132 361T197 453T288 515T405 538Q493 538 536 487T579 344Q579 291 566 233H184Q177 204 177 175Q177 120 207 91T299 61Q330 61 357 71T405 98T439 131T456 164H544ZM427 593H360L479 734H587L427 593Z"  />
<glyph unicode="&#xEA;" horiz-adv-x="556" d="M489 303Q491 314 492 325T493 347Q493 370 487 390T468 426T432 450T377 459Q347 459 318 446T264 412T223 362T198 303H489ZM544 164Q541 155 532 138T508 100T470 58T420 21Q400 9 367 -3T271 -15Q179 -15 132 37T85 173Q85 190 87 208T93 247Q106 308 132 361T197 453T288 515T405 538Q493 538 536 487T579 344Q579 291 566 233H184Q177 204 177 175Q177 120 207 91T299 61Q330 61 357 71T405 98T439 131T456 164H544ZM338 593H259L388 734H481L550 593H470L424 686L338 593Z"  />
<glyph unicode="&#xEB;" horiz-adv-x="556" d="M489 303Q491 314 492 325T493 347Q493 370 487 390T468 426T432 450T377 459Q347 459 318 446T264 412T223 362T198 303H489ZM544 164Q541 155 532 138T508 100T470 58T420 21Q400 9 367 -3T271 -15Q179 -15 132 37T85 173Q85 190 87 208T93 247Q106 308 132 361T197 453T288 515T405 538Q493 538 536 487T579 344Q579 291 566 233H184Q177 204 177 175Q177 120 207 91T299 61Q330 61 357 71T405 98T439 131T456 164H544ZM533 604H442L464 706H555L533 604ZM371 604H280L302 706H393L371 604Z"  />
<glyph unicode="&#xEC;" horiz-adv-x="278" d="M183 0H95L206 523H294L183 0ZM145 734H253L312 593H245L145 734Z"  />
<glyph unicode="&#xED;" horiz-adv-x="278" d="M183 0H95L206 523H294L183 0ZM290 593H223L342 734H450L290 593Z"  />
<glyph unicode="&#xEE;" horiz-adv-x="278" d="M183 0H95L206 523H294L183 0ZM201 593H122L251 734H344L413 593H333L287 686L201 593Z"  />
<glyph unicode="&#xEF;" horiz-adv-x="278" d="M183 0H95L206 523H294L183 0ZM396 604H305L327 706H418L396 604ZM234 604H143L165 706H256L234 604Z"  />
<glyph unicode="&#xF0;" horiz-adv-x="556" d="M499 646Q561 575 583 485T585 298Q566 208 531 148T454 52T367 0T283 -15Q217 -15 175 8T110 70T83 156T89 254Q99 303 124 351T187 438T271 499T375 523Q387 523 402 522T434 515T466 498T496 468L499 470Q491 513 468 549T418 612L281 550L248 592L378 649Q343 681 300 701L382 737Q428 717 462 686L579 737L617 697L499 646ZM180 254Q175 233 174 201T183 137T218 84T291 61Q339 61 373 83T431 137T466 200T484 254Q488 275 489 307T481 371T446 424T373 447Q325 447 291 425T233 371T197 308T180 254Z"  />
<glyph unicode="&#xF1;" horiz-adv-x="556" d="M491 0H403L471 322Q479 357 479 381Q479 420 458 439T389 459Q370 459 345 452T294 426T247 372T214 285L153 0H65L176 523H259L243 449H245Q254 459 270 474T309 504T360 528T422 538Q448 538 475 533T523 513T559 474T573 410Q573 386 567 356L491 0ZM592 722Q585 699 573 680T545 645T510 622T469 613Q455 613 444 616T413 626L389 635Q365 644 353 647T331 650Q311 650 298 638T275 606H227Q242 650 273 681T354 713Q374 713 389 709T418 698L438 689Q452 683 464 680T483 676Q498 676 508 680T524 692T535 707T542 722H592Z"  />
<glyph unicode="&#xF2;" horiz-adv-x="556" d="M182 262Q179 248 177 232T175 199Q175 175 180 151T198 107T234 75T291 62Q338 62 372 83T429 136T466 201T486 262Q489 276 491 292T493 326Q493 350 488 374T470 418T434 450T376 462Q329 462 295 441T238 388T202 323T182 262ZM91 262Q101 313 126 362T189 451T279 514T392 538Q444 538 480 522T540 477T573 412T584 334Q584 296 577 262Q566 211 541 162T478 73T389 10T275 -14Q224 -14 188 2T128 46T94 110T83 188Q83 222 91 262ZM282 734H390L449 593H382L282 734Z"  />
<glyph unicode="&#xF3;" horiz-adv-x="556" d="M182 262Q179 248 177 232T175 199Q175 175 180 151T198 107T234 75T291 62Q338 62 372 83T429 136T466 201T486 262Q489 276 491 292T493 326Q493 350 488 374T470 418T434 450T376 462Q329 462 295 441T238 388T202 323T182 262ZM91 262Q101 313 126 362T189 451T279 514T392 538Q444 538 480 522T540 477T573 412T584 334Q584 296 577 262Q566 211 541 162T478 73T389 10T275 -14Q224 -14 188 2T128 46T94 110T83 188Q83 222 91 262ZM427 593H360L479 734H587L427 593Z"  />
<glyph unicode="&#xF4;" horiz-adv-x="556" d="M182 262Q179 248 177 232T175 199Q175 175 180 151T198 107T234 75T291 62Q338 62 372 83T429 136T466 201T486 262Q489 276 491 292T493 326Q493 350 488 374T470 418T434 450T376 462Q329 462 295 441T238 388T202 323T182 262ZM91 262Q101 313 126 362T189 451T279 514T392 538Q444 538 480 522T540 477T573 412T584 334Q584 296 577 262Q566 211 541 162T478 73T389 10T275 -14Q224 -14 188 2T128 46T94 110T83 188Q83 222 91 262ZM338 593H259L388 734H481L550 593H470L424 686L338 593Z"  />
<glyph unicode="&#xF5;" horiz-adv-x="556" d="M182 262Q179 248 177 232T175 199Q175 175 180 151T198 107T234 75T291 62Q338 62 372 83T429 136T466 201T486 262Q489 276 491 292T493 326Q493 350 488 374T470 418T434 450T376 462Q329 462 295 441T238 388T202 323T182 262ZM91 262Q101 313 126 362T189 451T279 514T392 538Q444 538 480 522T540 477T573 412T584 334Q584 296 577 262Q566 211 541 162T478 73T389 10T275 -14Q224 -14 188 2T128 46T94 110T83 188Q83 222 91 262ZM602 722Q595 699 583 680T555 645T520 622T479 613Q465 613 454 616T423 626L399 635Q375 644 363 647T341 650Q321 650 308 638T285 606H237Q252 650 283 681T364 713Q384 713 399 709T428 698L448 689Q462 683 474 680T493 676Q508 676 518 680T534 692T545 707T552 722H602Z"  />
<glyph unicode="&#xF6;" horiz-adv-x="556" d="M182 262Q179 248 177 232T175 199Q175 175 180 151T198 107T234 75T291 62Q338 62 372 83T429 136T466 201T486 262Q489 276 491 292T493 326Q493 350 488 374T470 418T434 450T376 462Q329 462 295 441T238 388T202 323T182 262ZM91 262Q101 313 126 362T189 451T279 514T392 538Q444 538 480 522T540 477T573 412T584 334Q584 296 577 262Q566 211 541 162T478 73T389 10T275 -14Q224 -14 188 2T128 46T94 110T83 188Q83 222 91 262ZM533 604H442L464 706H555L533 604ZM371 604H280L302 706H393L371 604Z"  />
<glyph unicode="&#xF7;" horiz-adv-x="584" d="M234 49Q240 78 265 97T317 117Q345 117 360 97T370 49Q367 36 359 24T340 3T316 -13T288 -19Q261 -19 245 1T234 49ZM321 456Q327 485 351 504T403 524Q431 524 447 504T457 456Q454 443 446 431T427 410T402 394T374 388Q347 388 331 408T321 456ZM85 216L100 289H606L591 216H85Z"  />
<glyph unicode="&#xF8;" horiz-adv-x="611" d="M197 108Q209 88 232 75T291 62Q338 62 372 83T430 136T466 201T486 262Q491 285 492 315T487 373L197 108ZM474 410Q462 433 438 447T376 462Q329 462 295 441T238 388T201 323T182 262Q177 237 175 205T181 143L474 410ZM562 441Q581 403 584 357T577 262Q566 211 541 162T478 73T389 10T275 -14Q224 -14 188 2T129 46L54 -22L29 4L108 76Q88 114 84 162T91 262Q101 313 126 362T189 451T278 514T392 538Q446 538 483 521T543 473L622 545L647 519L562 441Z"  />
<glyph unicode="&#xF9;" horiz-adv-x="556" d="M406 0L422 76L421 78Q383 32 341 9T235 -15Q210 -15 185 -9T140 10T107 46T94 103Q94 113 95 124T99 147L179 523H267L193 176Q188 151 188 137Q188 95 211 78T270 61Q312 61 343 77T396 119T431 175T451 235L512 523H600L489 0H406ZM282 734H390L449 593H382L282 734Z"  />
<glyph unicode="&#xFA;" horiz-adv-x="556" d="M406 0L422 76L421 78Q383 32 341 9T235 -15Q210 -15 185 -9T140 10T107 46T94 103Q94 113 95 124T99 147L179 523H267L193 176Q188 151 188 137Q188 95 211 78T270 61Q312 61 343 77T396 119T431 175T451 235L512 523H600L489 0H406ZM427 593H360L479 734H587L427 593Z"  />
<glyph unicode="&#xFB;" horiz-adv-x="556" d="M406 0L422 76L421 78Q383 32 341 9T235 -15Q210 -15 185 -9T140 10T107 46T94 103Q94 113 95 124T99 147L179 523H267L193 176Q188 151 188 137Q188 95 211 78T270 61Q312 61 343 77T396 119T431 175T451 235L512 523H600L489 0H406ZM338 593H259L388 734H481L550 593H470L424 686L338 593Z"  />
<glyph unicode="&#xFC;" horiz-adv-x="556" d="M406 0L422 76L421 78Q383 32 341 9T235 -15Q210 -15 185 -9T140 10T107 46T94 103Q94 113 95 124T99 147L179 523H267L193 176Q188 151 188 137Q188 95 211 78T270 61Q312 61 343 77T396 119T431 175T451 235L512 523H600L489 0H406ZM533 604H442L464 706H555L533 604ZM371 604H280L302 706H393L371 604Z"  />
<glyph unicode="&#xFD;" horiz-adv-x="500" d="M503 523H600Q527 394 454 267T303 10Q296 -2 289 -14Q250 -77 223 -118T172 -181T120 -209T51 -214Q41 -214 33 -212T15 -206L32 -126Q40 -129 52 -132T83 -135Q100 -135 111 -132T135 -115T162 -79T202 -14L122 523H222L271 97H273L503 523ZM399 593H332L451 734H559L399 593Z"  />
<glyph unicode="&#xFE;" horiz-adv-x="556" d="M211 718H299L242 451H244Q253 461 267 476T301 505T349 528T413 538Q465 538 501 518T558 463T583 380T576 277Q566 230 544 179T487 84T401 13T284 -15Q231 -15 201 6T160 55H158L102 -207H14L211 718ZM192 237Q181 185 188 151T213 97T253 69T298 61Q334 61 363 76T416 119T456 183T482 263Q487 288 491 322T488 386T456 438T381 459Q333 459 300 437T246 380T212 308T192 237Z"  />
<glyph unicode="&#xFF;" horiz-adv-x="500" d="M503 523H600Q527 394 454 267T303 10Q296 -2 289 -14Q250 -77 223 -118T172 -181T120 -209T51 -214Q41 -214 33 -212T15 -206L32 -126Q40 -129 52 -132T83 -135Q100 -135 111 -132T135 -115T162 -79T202 -14L122 523H222L271 97H273L503 523ZM505 604H414L436 706H527L505 604ZM343 604H252L274 706H365L343 604Z"  />
<glyph unicode="&#x131;" horiz-adv-x="278" d="M183 0H95L206 523H294L183 0Z"  />
<glyph unicode="&#x152;" horiz-adv-x="1000" d="M676 718H773H1116L1097 632H748L702 412H1035L1016 326H683L632 86H983L965 0H619H522L538 75H536Q520 59 502 42T460 12T403 -10T325 -19Q254 -19 206 9T131 87T99 205T111 355Q119 390 133 432T169 516T223 598T294 669T386 718T500 737Q545 737 573 726T619 700T645 670T658 645H660L676 718ZM622 492Q630 529 624 559T599 610T551 642T483 654Q435 654 397 638T331 594T281 533T246 464T222 396T208 339Q199 295 197 258T201 189Q207 158 219 135T250 96T299 72T371 64Q395 64 425 73T483 101T533 153T566 230L622 492Z"  />
<glyph unicode="&#x153;" horiz-adv-x="944" d="M182 262Q179 248 177 232T175 199Q175 175 180 151T198 107T234 75T291 62Q338 62 372 83T429 136T466 201T486 262Q489 276 491 292T493 326Q493 350 488 374T470 418T434 450T376 462Q329 462 295 441T238 388T202 323T182 262ZM930 164Q927 155 918 138T894 100T856 58T806 21Q786 9 753 -3T657 -15Q600 -15 555 8T484 86Q460 53 431 33T374 3T322 -11T281 -14H275Q224 -14 188 2T128 46T94 110T83 188Q83 222 91 262Q101 313 126 362T189 451T279 514T392 538Q455 537 500 512T566 432Q615 489 668 513T791 538Q879 538 922 487T965 344Q965 291 952 233H569Q562 204 562 176Q562 120 592 91T685 61Q716 61 743 71T791 98T825 131T842 164H930ZM875 303Q877 314 878 325T879 347Q879 370 873 390T854 426T818 450T763 459Q733 459 704 446T650 412T608 362T583 303H875Z"  />
<glyph unicode="&#x160;" horiz-adv-x="667" d="M617 508Q620 524 620 538Q620 571 607 593T573 628T524 648T470 654Q447 654 418 650T360 632T310 593T279 528Q274 505 278 490T292 464T316 447T345 437L540 390Q596 376 631 343T667 247Q667 236 666 224T662 198Q648 134 613 92T532 26T434 -9T335 -19Q285 -19 251 -13T194 4T156 27T133 50Q109 77 100 105T90 163Q90 194 98 232H189Q187 221 186 211T185 191Q185 155 199 131T237 91T291 70T352 64Q378 64 411 68T476 86T532 122T565 185Q569 201 569 218Q569 255 539 274T439 312L300 346Q285 349 264 357T224 379T192 417T178 476Q178 496 182 515Q191 557 213 597T273 668T361 718T477 737Q552 737 598 721T670 680T704 624T713 563Q713 548 712 534T708 508H617ZM510 836L596 929H676L547 788H454L385 929H464L510 836Z"  />
<glyph unicode="&#x161;" horiz-adv-x="500" d="M441 374Q444 386 444 401T433 430T401 453T336 462Q326 462 308 460T271 450T237 427T216 388Q213 372 216 362T229 344T256 330T297 318L380 296Q446 279 474 254T502 190Q502 182 501 174T498 158Q489 117 467 85T412 31T339 -3T254 -15Q194 -15 157 -3T98 28T70 72T63 119Q63 133 64 145T68 168H153Q151 153 151 134T162 99T197 72T269 61Q293 61 315 66T356 81T388 106T407 144Q414 175 394 190T319 219L222 244Q170 258 144 287T128 371Q137 414 160 445T215 497T284 528T361 538Q416 538 449 524T500 490T523 447T529 405Q529 394 528 387T526 374H441ZM386 641L472 734H552L423 593H330L261 734H340L386 641Z"  />
<glyph unicode="&#x178;" horiz-adv-x="667" d="M382 0H285L346 289L167 718H280L412 373L692 718H806L443 289L382 0ZM630 799H539L561 901H652L630 799ZM468 799H377L399 901H490L468 799Z"  />
<glyph unicode="&#x17D;" horiz-adv-x="611" d="M588 0H23L40 81L597 632H190L209 718H741L723 634L164 86H606L588 0ZM482 836L568 929H648L519 788H426L357 929H436L482 836Z"  />
<glyph unicode="&#x17E;" horiz-adv-x="500" d="M164 73H485L469 0H31L46 69L442 450H151L166 523H571L556 451L164 73ZM386 641L472 734H552L423 593H330L261 734H340L386 641Z"  />
<glyph unicode="&#x192;" horiz-adv-x="556" d="M623 644Q608 651 596 656T569 661Q549 661 533 651T505 627T483 595T468 564L426 461H540L525 391H398L269 64Q239 -12 208 -64T144 -147T77 -193T7 -207Q-19 -207 -30 -204T-52 -195L-20 -114Q-11 -119 0 -123T28 -128Q53 -128 72 -116T107 -82T138 -27T169 46L306 391H197L212 461H335L389 585Q401 612 420 639T463 687T517 723T580 737Q611 737 625 733T654 722L623 644Z"  />
<glyph unicode="&#x2C6;" horiz-adv-x="333" d="M226 593H147L276 734H369L438 593H358L312 686L226 593Z"  />
<glyph unicode="&#x2C7;" horiz-adv-x="333" d="M302 641L388 734H468L339 593H246L177 734H256L302 641Z"  />
<glyph unicode="&#x2DA;" horiz-adv-x="333" d="M256 664Q251 642 263 627T297 612Q319 612 337 627T360 664Q365 686 353 701T319 716Q297 716 279 701T256 664ZM328 756Q368 756 388 730T400 664Q392 624 361 598T289 572Q249 572 229 598T216 664Q224 704 256 730T328 756Z"  />
<glyph unicode="&#x2DC;" horiz-adv-x="333" d="M490 722Q483 699 471 680T443 645T408 622T367 613Q353 613 342 616T311 626L287 635Q263 644 251 647T229 650Q209 650 196 638T173 606H125Q140 650 171 681T252 713Q272 713 287 709T316 698L336 689Q350 683 362 680T381 676Q396 676 406 680T422 692T433 707T440 722H490Z"  />
<glyph unicode="&#x2013;" horiz-adv-x="556" d="M607 240H51L67 313H623L607 240Z"  />
<glyph unicode="&#x2014;" horiz-adv-x="1000" d="M1051 240H51L67 313H1067L1051 240Z"  />
<glyph unicode="&#x2018;" horiz-adv-x="222" d="M269 470H165L187 568Q199 620 218 650T259 697T297 717T323 723L313 677Q297 676 285 667T263 643T248 611T239 576H292L269 470Z"  />
<glyph unicode="&#x2019;" horiz-adv-x="222" d="M206 718H310L288 620Q276 567 257 537T216 491T177 471T152 465L162 511Q178 512 190 521T212 545T227 577T236 612H183L206 718Z"  />
<glyph unicode="&#x201A;" horiz-adv-x="222" d="M76 106H180L158 8Q146 -45 127 -75T86 -121T47 -141T22 -147L32 -101Q48 -100 60 -91T82 -67T97 -35T106 0H53L76 106Z"  />
<glyph unicode="&#x201C;" horiz-adv-x="333" d="M241 470H137L159 568Q171 620 190 650T231 697T269 717T295 723L285 677Q269 676 257 667T235 643T220 611T211 576H264L241 470ZM406 470H302L324 568Q336 620 355 650T396 697T434 717T460 723L450 677Q434 676 422 667T400 643T385 611T376 576H429L406 470Z"  />
<glyph unicode="&#x201D;" horiz-adv-x="333" d="M344 718H448L426 620Q414 567 395 537T354 491T315 471T290 465L300 511Q316 512 328 521T350 545T365 577T374 612H321L344 718ZM179 718H283L261 620Q249 567 230 537T189 491T150 471T125 465L135 511Q151 512 163 521T185 545T200 577T209 612H156L179 718Z"  />
<glyph unicode="&#x201E;" horiz-adv-x="333" d="M214 106H318L296 8Q284 -45 265 -75T224 -121T185 -141T160 -147L170 -101Q186 -100 198 -91T220 -67T235 -35T244 0H191L214 106ZM49 106H153L131 8Q119 -45 100 -75T59 -121T20 -141T-5 -147L5 -101Q21 -100 33 -91T55 -67T70 -35T79 0H26L49 106Z"  />
<glyph unicode="&#x2020;" horiz-adv-x="556" d="M292 -159H198L324 431H135L151 507H340L385 718H479L434 507H622L606 431H418L292 -159Z"  />
<glyph unicode="&#x2021;" horiz-adv-x="556" d="M351 119H539L523 43H335L292 -159H198L241 43H52L68 119H257L325 439H136L152 515H341L385 718H479L435 515H623L607 439H419L351 119Z"  />
<glyph unicode="&#x2022;" horiz-adv-x="350" d="M409 359Q402 326 384 298T339 248T282 215T218 202Q189 202 166 211T126 236T100 275T90 325Q90 343 94 359Q101 392 119 420T163 470T220 504T285 517Q314 517 337 508T377 481T403 442T412 392Q412 375 409 359Z"  />
<glyph unicode="&#x2026;" horiz-adv-x="1000" d="M885 0H781L804 106H908L885 0ZM552 0H448L471 106H575L552 0ZM219 0H115L138 106H242L219 0Z"  />
<glyph unicode="&#x2030;" horiz-adv-x="1000" d="M143 -19H88L638 703H693L143 -19ZM777 149Q769 111 789 84T850 56Q869 56 887 63T921 83T948 113T963 149Q967 168 963 185T949 214T924 234T889 242Q869 242 851 235T817 214T792 185T777 149ZM714 149Q721 182 739 210T783 260T840 293T903 305Q931 305 954 296T994 270T1020 230T1030 181Q1030 173 1029 165T1026 149Q1019 117 1001 89T957 39T900 6T837 -7Q780 -7 745 27T710 115Q710 133 714 149ZM414 149Q406 111 426 84T487 56Q506 56 524 63T558 83T585 113T600 149Q604 168 600 185T586 214T561 234T526 242Q506 242 488 235T454 214T429 185T414 149ZM351 149Q358 182 376 210T420 260T477 293T540 305Q568 305 591 296T631 270T657 230T667 181Q667 173 666 165T663 149Q656 117 638 89T594 39T537 6T474 -7Q417 -7 382 27T347 115Q347 133 351 149ZM185 539Q177 501 197 474T258 446Q277 446 295 453T329 473T356 503T371 539Q375 558 371 575T357 604T332 624T297 632Q277 632 259 625T225 604T200 575T185 539ZM122 539Q129 572 147 600T191 650T248 683T311 695Q339 695 362 686T402 660T428 620T438 571Q438 563 437 555T434 539Q427 507 409 479T365 429T308 396T244 383Q187 383 153 417T118 505Q118 523 122 539Z"  />
<glyph unicode="&#x2039;" horiz-adv-x="333" d="M268 108L137 231L157 323L340 446L321 358L199 277L287 196L268 108Z"  />
<glyph unicode="&#x203A;" horiz-adv-x="333" d="M130 196L252 277L164 358L183 446L314 323L294 231L111 108L130 196Z"  />
<glyph unicode="&#x20AC;" horiz-adv-x="556" d="M623 534Q612 571 579 597T481 624Q442 624 411 608T356 567T315 509T288 444H573L534 372H270L255 301H494L455 229H246Q240 191 246 160T267 106T304 72T356 60Q384 60 412 67T465 86T509 109T537 131L516 32Q512 29 497 21T459 4T407 -12T346 -19Q240 -19 191 44T152 229H73L113 301H161L176 372H104L144 444H195Q233 567 310 635T503 703Q569 703 613 681T674 628L623 534Z"  />
<glyph unicode="&#x2122;" horiz-adv-x="1000" d="M513 658H386L311 306H238L313 658H186L199 718H526L513 658ZM763 415L944 718H1056L968 306H895L966 641H964L764 306H714L656 641H654L583 306H510L598 718H710L763 415Z"  />

</font>
</defs>
</svg>
